<mxfile host="app.diagrams.net"
        agent="Mozilla/5.0 (Windows NT 10.0; Win64; x64; rv:135.0) Gecko/20100101 Firefox/135.0"
        version="26.0.14">

  <!-- ───────── BEFORE ───────── -->
  <diagram id="Struct1a_Before" name="1a‑Before (insert 25)">
    <mxGraphModel dx="2812" dy="2337" grid="1" gridSize="10" guides="1"
                  tooltips="1" connect="1" arrows="1" fold="1"
                  page="1" pageScale="1" pageWidth="827" pageHeight="1169"
                  math="0" shadow="0">
      <root>
        <mxCell id="0"/><mxCell id="1" parent="0"/>

        <!-- root (height 2) -->
        <mxCell id="R1" value="13 | 21 | 26"
                style="shape=rectangle;rounded=1;whiteSpace=wrap;html=1;fontSize=12;"
                vertex="1" parent="1">
          <mxGeometry x="260" y="40" width="120" height="40" as="geometry"/>
        </mxCell>

        <!-- leaves (violet) -->
        <mxCell id="L1" value="5 7 9 11"
                style="shape=rectangle;rounded=1;whiteSpace=wrap;html=1;fillColor=#e1d5e7;"
                vertex="1" parent="1">
          <mxGeometry x="40"  y="120" width="120" height="40" as="geometry"/>
        </mxCell>
        <mxCell id="L2" value="13 15 17 19"
                style="shape=rectangle;rounded=1;whiteSpace=wrap;html=1;fillColor=#e1d5e7;"
                vertex="1" parent="1">
          <mxGeometry x="180" y="120" width="120" height="40" as="geometry"/>
        </mxCell>
        <mxCell id="L3" value="21 22 23 24"
                style="shape=rectangle;rounded=1;whiteSpace=wrap;html=1;fillColor=#e1d5e7;"
                vertex="1" parent="1">
          <mxGeometry x="320" y="120" width="120" height="40" as="geometry"/>
        </mxCell>
        <mxCell id="L4" value="26 27 28 29"
                style="shape=rectangle;rounded=1;whiteSpace=wrap;html=1;fillColor=#e1d5e7;"
                vertex="1" parent="1">
          <mxGeometry x="460" y="120" width="120" height="40" as="geometry"/>
        </mxCell>

        <!-- child‑pointers -->
        <mxCell id="E1" style="endArrow=none;startArrow=none;" edge="1"
                parent="1" source="R1" target="L1">
          <mxGeometry relative="1" as="geometry"/>
        </mxCell>
        <mxCell id="E2" style="endArrow=none;startArrow=none;" edge="1"
                parent="1" source="R1" target="L2">
          <mxGeometry relative="1" as="geometry"/>
        </mxCell>
        <mxCell id="E3" style="endArrow=none;startArrow=none;" edge="1"
                parent="1" source="R1" target="L3">
          <mxGeometry relative="1" as="geometry"/>
        </mxCell>
        <mxCell id="E4" style="endArrow=none;startArrow=none;" edge="1"
                parent="1" source="R1" target="L4">
          <mxGeometry relative="1" as="geometry"/>
        </mxCell>
      </root>
    </mxGraphModel>
  </diagram>

  <!-- ───────── AFTER ────────── -->
  <diagram id="Struct1a_After" name="1a‑After (insert 25)">
    <mxGraphModel dx="2812" dy="2337" grid="1" gridSize="10" guides="1"
                  tooltips="1" connect="1" arrows="1" fold="1"
                  page="1" pageScale="1" pageWidth="827" pageHeight="1169"
                  math="0" shadow="0">
      <root>
        <mxCell id="0"/><mxCell id="1" parent="0"/>

        <!-- new root (height 3) -->
        <mxCell id="R2" value="23"
                style="shape=rectangle;rounded=1;whiteSpace=wrap;html=1;fontSize=12;"
                vertex="1" parent="1">
          <mxGeometry x="300" y="40" width="60" height="40" as="geometry"/>
        </mxCell>

        <!-- level‑2 internals -->
        <mxCell id="I1" value="13"
                style="shape=rectangle;rounded=1;whiteSpace=wrap;html=1;"
                vertex="1" parent="1">
          <mxGeometry x="160" y="120" width="60" height="40" as="geometry"/>
        </mxCell>
        <mxCell id="I2" value="23 | 26"
                style="shape=rectangle;rounded=1;whiteSpace=wrap;html=1;"
                vertex="1" parent="1">
          <mxGeometry x="380" y="120" width="100" height="40" as="geometry"/>
        </mxCell>

        <!-- leaves -->
        <mxCell id="L1a" value="5 7 9 11"
                style="shape=rectangle;rounded=1;whiteSpace=wrap;html=1;fillColor=#e1d5e7;"
                vertex="1" parent="1">
          <mxGeometry x="20"  y="220" width="120" height="40" as="geometry"/>
        </mxCell>
        <mxCell id="L2a" value="13 15 17 19"
                style="shape=rectangle;rounded=1;whiteSpace=wrap;html=1;fillColor=#e1d5e7;"
                vertex="1" parent="1">
          <mxGeometry x="160" y="220" width="120" height="40" as="geometry"/>
        </mxCell>
        <mxCell id="L3a" value="21 22"
                style="shape=rectangle;rounded=1;whiteSpace=wrap;html=1;fillColor=#e1d5e7;"
                vertex="1" parent="1">
          <mxGeometry x="300" y="220" width="80" height="40" as="geometry"/>
        </mxCell>
        <mxCell id="L4a" value="23 24 25"
                style="shape=rectangle;rounded=1;whiteSpace=wrap;html=1;fillColor=#e1d5e7;"
                vertex="1" parent="1">
          <mxGeometry x="400" y="220" width="100" height="40" as="geometry"/>
        </mxCell>
        <mxCell id="L5a" value="26 27 28 29"
                style="shape=rectangle;rounded=1;whiteSpace=wrap;html=1;fillColor=#e1d5e7;"
                vertex="1" parent="1">
          <mxGeometry x="520" y="220" width="120" height="40" as="geometry"/>
        </mxCell>

        <!-- edges root→internals -->
        <mxCell id="E5" style="endArrow=none;startArrow=none;" edge="1"
                parent="1" source="R2" target="I1">
          <mxGeometry relative="1" as="geometry"/>
        </mxCell>
        <mxCell id="E6" style="endArrow=none;startArrow=none;" edge="1"
                parent="1" source="R2" target="I2">
          <mxGeometry relative="1" as="geometry"/>
        </mxCell>

        <!-- edges internals→leaves -->
        <mxCell id="E7" style="endArrow=none;startArrow=none;" edge="1"
                parent="1" source="I1" target="L1a">
          <mxGeometry relative="1" as="geometry"/>
        </mxCell>
        <mxCell id="E8" style="endArrow=none;startArrow=none;" edge="1"
                parent="1" source="I1" target="L2a">
          <mxGeometry relative="1" as="geometry"/>
        </mxCell>
        <mxCell id="E9"  style="endArrow=none;startArrow=none;" edge="1"
                parent="1" source="I2" target="L3a">
          <mxGeometry relative="1" as="geometry"/>
        </mxCell>
        <mxCell id="E10" style="endArrow=none;startArrow=none;" edge="1"
                parent="1" source="I2" target="L4a">
          <mxGeometry relative="1" as="geometry"/>
        </mxCell>
        <mxCell id="E11" style="endArrow=none;startArrow=none;" edge="1"
                parent="1" source="I2" target="L5a">
          <mxGeometry relative="1" as="geometry"/>
        </mxCell>
      </root>
    </mxGraphModel>
  </diagram>
</mxfile>
